Coordinates
version=1
nRows=33
nColumns=30
inDegrees=yes

Units are S.I. units (second, meters, Newtons, ...)
Angles are in degrees.

endheader
time	floatyaw	floatroll	floatpitch	floatx	floaty	floatz	pro_sup_l	deviation_l	flexion_l	cmc_flexion_l	cmc_abduction_l	mp_flexion_l	ip_flexion_l	2mcp_flexion_l	2mcp_abduction_l	2pm_flexion_l	2md_flexion_l	3mcp_flexion_l	3mcp_abduction_l	3pm_flexion_l	3md_flexion_l	4mcp_flexion_l	4mcp_abduction_l	4pm_flexion_l	4md_flexion_l	5mcp_flexion_l	5mcp_abduction_l	5pm_flexion_l	5md_flexion_l
-0.995000	-160.147433	-5.066637	-73.570646	0.075989	-0.180090	-0.021199	99.048422	1.599880	-1.038395	14.206544	4.636902	-26.707255	-42.861210	32.251970	7.236055	43.503742	31.257290	26.308879	4.082684	44.868060	28.985354	15.369278	-4.562230	53.795578	37.296780	2.190318	-7.892289	63.842562	43.483325
-0.985000	-160.147433	-5.066637	-73.570646	0.075988	-0.180095	-0.021172	99.030038	1.610116	-1.007643	14.193042	4.611369	-26.726318	-42.876280	32.273012	7.242611	43.590303	31.257860	26.282584	4.088095	44.904948	29.001024	15.363414	-4.560900	53.818029	37.298612	2.206797	-7.905368	63.852780	43.482697
-0.975000	-160.147433	-5.066637	-73.570646	0.075988	-0.180088	-0.021139	99.006707	1.614854	-0.970792	14.189856	4.566321	-26.753754	-42.905521	32.301278	7.251157	43.694199	31.275833	26.254183	4.093273	44.935585	29.015232	15.361127	-4.561198	53.836673	37.302518	2.220591	-7.918432	63.868282	43.489374
-0.965000	-160.147433	-5.066637	-73.570646	0.075994	-0.180064	-0.021100	98.974065	1.609572	-0.928228	14.191018	4.505377	-26.782098	-42.941202	32.330839	7.260986	43.799779	31.312720	26.228018	4.096636	44.950427	29.024445	15.358689	-4.564073	53.843154	37.311275	2.225195	-7.927588	63.877068	43.496920
-0.955000	-160.147433	-5.066637	-73.570646	0.076005	-0.180025	-0.021055	98.927367	1.591540	-0.883369	14.188398	4.440027	-26.803212	-42.968632	32.351665	7.271651	43.888897	31.361861	26.208423	4.097013	44.942594	29.027035	15.349697	-4.569363	53.833353	37.326841	2.217050	-7.930964	63.864934	43.499068
-0.945000	-160.147433	-5.066637	-73.570646	0.076024	-0.179977	-0.021010	98.864358	1.560660	-0.842711	14.175384	4.384541	-26.811033	-42.973065	32.352395	7.282716	43.946024	31.410818	26.198587	4.094056	44.910346	29.022940	15.328526	-4.575721	53.808263	37.348560	2.196512	-7.929236	63.823636	43.492471
-0.935000	-160.147433	-5.066637	-73.570646	0.076048	-0.179933	-0.020971	98.788044	1.520405	-0.813246	14.149714	4.349392	-26.803196	-42.946745	32.325457	7.293519	43.962344	31.446502	26.198822	4.088565	44.857693	29.013176	15.293072	-4.581189	53.773177	37.372898	2.166958	-7.925276	63.756537	43.478668
-0.925000	-160.147433	-5.066637	-73.570646	0.076074	-0.179900	-0.020944	98.707084	1.477744	-0.798859	14.113786	4.336885	-26.781601	-42.892670	32.272430	7.303317	43.937578	31.460453	26.205549	4.082358	44.793786	28.999966	15.245843	-4.584077	53.736158	37.394983	2.132856	-7.922977	63.679554	43.464251
-0.915000	-160.147433	-5.066637	-73.570646	0.076099	-0.179885	-0.020934	98.632965	1.441594	-0.798295	14.072527	4.341856	-26.751965	-42.823083	32.206113	7.311801	43.879348	31.451890	26.212521	4.077618	44.731477	28.987082	15.193377	-4.583697	53.706569	37.411173	2.098098	-7.925801	63.616801	43.458823
-0.905000	-160.147433	-5.066637	-73.570646	0.076119	-0.179890	-0.020941	98.575009	1.420314	-0.806155	14.030244	4.356779	-26.722146	-42.753281	32.146738	7.319527	43.800509	31.427365	26.214507	4.075957	44.684538	28.979226	15.144518	-4.580636	53.693579	37.421058	2.065427	-7.935605	63.591845	43.471234
-0.895000	-160.147433	-5.066637	-73.570646	0.076131	-0.179915	-0.020962	98.535683	1.419268	-0.816018	13.988270	4.377198	-26.699460	-42.693947	32.112986	7.327642	43.715230	31.396823	26.211384	4.077662	44.663269	28.979978	15.107916	-4.576473	53.704097	37.427363	2.036642	-7.951989	63.617399	43.505294
-0.885000	-160.147433	-5.066637	-73.570646	0.076136	-0.179958	-0.020989	98.508969	1.439525	-0.823238	13.944648	4.403606	-26.688227	-42.646526	32.111815	7.336697	43.635252	31.366912	26.209063	4.081677	44.669977	28.989501	15.088993	-4.573015	53.740177	37.433237	2.012670	-7.972191	63.688061	43.556580
-0.875000	-160.147433	-5.066637	-73.570646	0.076136	-0.180015	-0.021012	98.483532	1.478332	-0.825581	13.896248	4.439644	-26.688936	-42.604558	32.132182	7.345033	43.567833	31.334213	26.214893	4.086508	44.697200	29.004075	15.086811	-4.571299	53.796770	37.437970	1.993063	-7.991590	63.780369	43.611869
-0.865000	-160.147433	-5.066637	-73.570646	0.076138	-0.180079	-0.021020	98.450026	1.531052	-0.822020	13.842687	4.489243	-26.699016	-42.559854	32.145843	7.347730	43.515621	31.282637	26.228963	4.091560	44.730413	29.018391	15.091758	-4.570769	53.860508	37.433624	1.975223	-8.004879	63.860692	43.651960
-0.855000	-160.147433	-5.066637	-73.570646	0.076149	-0.180143	-0.021004	98.409272	1.593391	-0.811422	13.790419	4.554535	-26.713724	-42.508942	32.115092	7.337190	43.477267	31.188461	26.236501	4.097904	44.753722	29.029278	15.085142	-4.569120	53.909592	37.405251	1.953689	-8.007877	63.896777	43.657454
-0.845000	-160.147433	-5.066637	-73.570646	0.076177	-0.180196	-0.020960	98.376887	1.662658	-0.792442	13.754625	4.634337	-26.726094	-42.455357	32.004757	7.305859	43.447622	31.032240	26.207644	4.107763	44.754656	29.038010	15.041758	-4.563157	53.915592	37.335933	1.919426	-7.999588	63.867418	43.615829
-0.835000	-160.147433	-5.066637	-73.570646	0.076228	-0.180231	-0.020888	98.381106	1.737686	-0.764342	13.756560	4.723049	-26.726615	-42.406555	31.795039	7.250637	43.417839	30.811560	26.107676	4.122977	44.725347	29.049160	14.935980	-4.550450	53.849505	37.215327	1.859374	-7.983621	63.767460	43.527446
-0.825000	-160.147433	-5.066637	-73.570646	0.076305	-0.180239	-0.020792	98.453504	1.817968	-0.727567	13.815549	4.811085	-26.704298	-42.367762	31.491985	7.177128	43.376700	30.546488	25.914536	4.143558	44.661282	29.066718	14.750616	-4.530971	53.693548	37.047891	1.757798	-7.967858	63.608774	43.407987
-0.815000	-160.147433	-5.066637	-73.570646	0.076407	-0.180221	-0.020682	98.615700	1.902926	-0.683545	13.937938	4.888001	-26.649871	-42.336741	31.132097	7.100743	43.314032	30.273345	25.634423	4.167453	44.561535	29.090727	14.485733	-4.507702	53.455057	36.856133	1.601659	-7.961751	63.418265	43.285388
-0.805000	-160.147433	-5.066637	-73.570646	0.076528	-0.180181	-0.020569	98.867581	1.991821	-0.634272	14.108642	4.947806	-26.560067	-42.302860	30.776943	7.042248	43.225621	30.030155	25.305380	4.191607	44.432859	29.117692	14.163271	-4.485709	53.173396	36.675935	1.389925	-7.971966	63.232415	43.191081
-0.795000	-160.147433	-5.066637	-73.570646	0.076658	-0.180131	-0.020464	99.182956	2.084068	-0.582603	14.291782	4.993916	-26.440787	-42.251486	30.495530	7.018522	43.117556	29.842716	24.985032	4.213322	44.294998	29.144911	13.824000	-4.470079	52.911912	36.544999	1.142029	-7.998458	63.088138	43.148520
-0.785000	-160.147433	-5.066637	-73.570646	0.076784	-0.180090	-0.020378	99.515831	2.179119	-0.533248	14.443060	5.040327	-26.307193	-42.171750	30.338875	7.033329	43.007136	29.718823	24.728477	4.230813	44.180866	29.175215	13.516673	-4.463704	52.736200	36.489544	0.897838	-8.033488	63.012774	43.164605
-0.775000	-160.147433	-5.066637	-73.570646	0.076894	-0.180073	-0.020315	99.815138	2.275325	-0.493273	14.528974	5.106701	-26.180316	-42.063884	30.318835	7.074284	42.918449	29.651732	24.568438	4.242882	44.127407	29.217751	13.283172	-4.466027	52.689589	36.515680	0.705287	-8.064774	63.018099	43.228958
-0.765000	-160.147433	-5.066637	-73.570646	0.076979	-0.180092	-0.020277	100.040915	2.368434	-0.470771	14.541742	5.208377	-26.081647	-41.942404	30.404017	7.118944	42.873913	29.628800	24.507539	4.248603	44.160055	29.283569	13.145925	-4.473383	52.778500	36.609376	0.600911	-8.081461	63.100944	43.321232
-0.755000	-160.147433	-5.066637	-73.570646	0.077036	-0.180149	-0.020264	100.174302	2.451422	-0.471781	14.500084	5.345814	-26.028128	-41.833539	30.536247	7.146947	42.886132	29.640454	24.524439	4.247581	44.279814	29.379014	13.103082	-4.480900	52.973594	36.744231	0.595045	-8.079487	63.248439	43.421487
-0.745000	-160.147433	-5.066637	-73.570646	0.077065	-0.180237	-0.020272	100.218034	2.516654	-0.497350	14.435415	5.498499	-26.029293	-41.768001	30.658312	7.150879	42.954227	29.686112	24.588064	4.240389	44.461229	29.501461	13.133271	-4.485016	53.223702	36.892599	0.670411	-8.063147	63.443610	43.517544
-0.735000	-160.147433	-5.066637	-73.570646	0.077065	-0.180343	-0.020298	100.189947	2.559417	-0.542800	14.373345	5.625862	-26.086671	-41.772060	30.737303	7.139362	43.065449	29.774879	24.671661	4.228502	44.662458	29.639640	13.206907	-4.485252	53.474045	37.034486	0.792968	-8.042263	63.668313	43.606481
-0.725000	-160.147433	-5.066637	-73.570646	0.077039	-0.180452	-0.020339	100.114979	2.580630	-0.599604	14.323016	5.675563	-26.194329	-41.859843	30.772146	7.130951	43.200076	29.920267	24.760691	4.213672	44.841372	29.777389	13.298111	-4.484200	53.680579	37.160549	0.926764	-8.027239	63.903352	43.691372
-0.715000	-160.147433	-5.066637	-73.570646	0.076991	-0.180549	-0.020392	100.019618	2.587204	-0.658426	14.279976	5.599314	-26.339501	-42.028552	30.784485	7.143030	43.337520	30.130786	24.852754	4.197376	44.969542	29.898306	13.391742	-4.485780	53.817158	37.269376	1.045049	-8.024990	64.128009	43.776352
-0.705000	-160.147433	-5.066637	-73.570646	0.076928	-0.180625	-0.020453	99.928595	2.589829	-0.711434	14.238524	5.374485	-26.503455	-42.257411	30.801545	7.182401	43.462370	30.400898	24.951558	4.180857	45.038964	29.989742	13.483528	-4.492877	53.877216	37.362483	1.134752	-8.037321	64.322031	43.862827
-0.695000	-160.147433	-5.066637	-73.570646	0.076857	-0.180672	-0.020514	99.861052	2.598878	-0.753062	14.203649	5.023786	-26.663785	-42.511071	30.842370	7.242603	43.568670	30.707226	25.059509	4.165607	45.060669	30.045573	13.575284	-4.505714	53.872703	37.440721	1.195345	-8.061503	64.471174	43.948295
-0.685000	-160.147433	-5.066637	-73.570646	0.076787	-0.180691	-0.020568	99.825227	2.619712	-0.779782	14.193776	4.619710	-26.798934	-42.747852	30.914107	7.308580	43.659908	31.012456	25.173812	4.153573	45.056954	30.067096	13.669161	-4.521670	53.830670	37.503519	1.234576	-8.091993	64.573296	44.027281
-0.675000	-160.147433	-5.066637	-73.570646	0.076721	-0.180685	-0.020611	99.815114	2.649453	-0.790023	14.231701	4.263806	-26.893920	-42.931394	31.016785	7.364934	43.743757	31.275458	25.288280	4.146514	45.050453	30.061488	13.763956	-4.536382	53.786139	37.550103	1.263649	-8.122304	64.639234	44.092701
